<svg width="140" height="156" xmlns="http://www.w3.org/2000/svg">
<g>
<path d="M0 35L70 70V156L0 121V35Z" fill="#5B422D"/>
<path d="M0 51L4 53V47L8.5 49V55L17 59V65L22 67.5V50.9591L26 53L26 64L30.5 66V61L35 63V74L39.026 76L39 70.5L44 73V78L48 80V75L53 77.5V72L57 74V80L65.5 84V79L70 81L70 70L0 35V51Z" fill="#64A43A"/>
<path d="M0 35L70 70L140 35L70 0L0 35Z" fill="#5A9A30"/>
<path d="M140 35L70 70V156L140 121V35Z" fill="#4F3624"/>
<path d="M140 35V45.2925L136 47.5V53L127 57.5V52L123 54V59.5L118 62V68L114 70V64L109 66.5V72L105 74V63.5L101 65.5V70.5L96 73V63L92 65V81L88 83V77L79 81.5V76L74.5 78.5V83.5L70 85.5V70L140 35Z" fill="#3B6121"/>
</g>
</svg>
